<svg id="visual" viewBox="0 0 1297 920" width="1297" height="920" xmlns="http://www.w3.org/2000/svg" xmlns:xlink="http://www.w3.org/1999/xlink" version="1.1"><g stroke-width="1" stroke-linejoin="bevel"><path d="M569.4 495.7L450.3 419.3L458.3 508.7Z" fill="#b8a99a" stroke="#b8a99a"></path><path d="M569.4 495.7L557.4 370.3L450.3 419.3Z" fill="#98897b" stroke="#98897b"></path><path d="M458.3 508.7L607.4 632.1L569.4 495.7Z" fill="#514538" stroke="#514538"></path><path d="M569.4 495.7L744.6 360.3L557.4 370.3Z" fill="#514538" stroke="#514538"></path><path d="M557.4 370.3L424.3 264.9L450.3 419.3Z" fill="#98897b" stroke="#98897b"></path><path d="M249.2 490.7L430.3 664.1L458.3 508.7Z" fill="#8d7f71" stroke="#8d7f71"></path><path d="M249.2 490.7L458.3 508.7L450.3 419.3Z" fill="#a29485" stroke="#a29485"></path><path d="M458.3 508.7L430.3 664.1L607.4 632.1Z" fill="#796b5d" stroke="#796b5d"></path><path d="M607.4 632.1L715.6 546.7L569.4 495.7Z" fill="#796b5d" stroke="#796b5d"></path><path d="M744.6 360.3L615.4 249.9L557.4 370.3Z" fill="#98897b" stroke="#98897b"></path><path d="M557.4 370.3L615.4 249.9L424.3 264.9Z" fill="#514538" stroke="#514538"></path><path d="M424.3 264.9L281.2 374.3L450.3 419.3Z" fill="#b8a99a" stroke="#b8a99a"></path><path d="M607.4 632.1L683.6 630.1L715.6 546.7Z" fill="#514538" stroke="#514538"></path><path d="M721.6 795.6L683.6 630.1L607.4 632.1Z" fill="#8d7f71" stroke="#8d7f71"></path><path d="M715.6 546.7L744.6 360.3L569.4 495.7Z" fill="#796b5d" stroke="#796b5d"></path><path d="M281.2 374.3L249.2 490.7L450.3 419.3Z" fill="#514538" stroke="#514538"></path><path d="M744.6 360.3L733.6 280.9L615.4 249.9Z" fill="#98897b" stroke="#98897b"></path><path d="M281.2 153.4L286.2 246.9L424.3 264.9Z" fill="#5b4e41" stroke="#5b4e41"></path><path d="M424.3 264.9L286.2 246.9L281.2 374.3Z" fill="#a29485" stroke="#a29485"></path><path d="M129.1 433.3L158.1 542.7L249.2 490.7Z" fill="#98897b" stroke="#98897b"></path><path d="M430.3 664.1L560.4 786.6L607.4 632.1Z" fill="#6f6154" stroke="#6f6154"></path><path d="M249.2 490.7L253.2 674.1L430.3 664.1Z" fill="#796b5d" stroke="#796b5d"></path><path d="M430.3 664.1L414.3 799.6L560.4 786.6Z" fill="#5b4e41" stroke="#5b4e41"></path><path d="M689.6 160.4L613.4 130.4L615.4 249.9Z" fill="#796b5d" stroke="#796b5d"></path><path d="M615.4 249.9L460.3 93.4L424.3 264.9Z" fill="#5b4e41" stroke="#5b4e41"></path><path d="M733.6 280.9L689.6 160.4L615.4 249.9Z" fill="#6f6154" stroke="#6f6154"></path><path d="M326.2 801.6L414.3 799.6L430.3 664.1Z" fill="#837567" stroke="#837567"></path><path d="M129.1 433.3L249.2 490.7L281.2 374.3Z" fill="#8d7f71" stroke="#8d7f71"></path><path d="M249.2 490.7L171.1 618.1L253.2 674.1Z" fill="#837567" stroke="#837567"></path><path d="M683.6 630.1L867.7 536.7L715.6 546.7Z" fill="#65584a" stroke="#65584a"></path><path d="M715.6 546.7L867.7 536.7L744.6 360.3Z" fill="#b8a99a" stroke="#b8a99a"></path><path d="M744.6 360.3L871.7 362.3L733.6 280.9Z" fill="#6f6154" stroke="#6f6154"></path><path d="M733.6 280.9L848.7 166.4L689.6 160.4Z" fill="#5b4e41" stroke="#5b4e41"></path><path d="M899.7 682.1L867.7 536.7L683.6 630.1Z" fill="#98897b" stroke="#98897b"></path><path d="M613.4 130.4L460.3 93.4L615.4 249.9Z" fill="#98897b" stroke="#98897b"></path><path d="M158.1 542.7L171.1 618.1L249.2 490.7Z" fill="#a29485" stroke="#a29485"></path><path d="M253.2 674.1L326.2 801.6L430.3 664.1Z" fill="#6f6154" stroke="#6f6154"></path><path d="M867.7 536.7L871.7 362.3L744.6 360.3Z" fill="#98897b" stroke="#98897b"></path><path d="M115.1 285.9L129.1 433.3L281.2 374.3Z" fill="#a29485" stroke="#a29485"></path><path d="M0 635.1L169.1 752.6L171.1 618.1Z" fill="#8d7f71" stroke="#8d7f71"></path><path d="M460.3 93.4L281.2 153.4L424.3 264.9Z" fill="#a29485" stroke="#a29485"></path><path d="M286.2 246.9L115.1 285.9L281.2 374.3Z" fill="#796b5d" stroke="#796b5d"></path><path d="M169.1 752.6L326.2 801.6L253.2 674.1Z" fill="#8d7f71" stroke="#8d7f71"></path><path d="M572.4 920L721.6 795.6L560.4 786.6Z" fill="#837567" stroke="#837567"></path><path d="M560.4 786.6L721.6 795.6L607.4 632.1Z" fill="#98897b" stroke="#98897b"></path><path d="M455.3 920L560.4 786.6L414.3 799.6Z" fill="#a29485" stroke="#a29485"></path><path d="M1002.8 286.9L874.7 252.9L871.7 362.3Z" fill="#514538" stroke="#514538"></path><path d="M871.7 362.3L874.7 252.9L733.6 280.9Z" fill="#98897b" stroke="#98897b"></path><path d="M182.1 111.4L115.1 285.9L286.2 246.9Z" fill="#65584a" stroke="#65584a"></path><path d="M874.7 252.9L848.7 166.4L733.6 280.9Z" fill="#a29485" stroke="#a29485"></path><path d="M746.6 0L564.4 0L613.4 130.4Z" fill="#a29485" stroke="#a29485"></path><path d="M564.4 0L463.3 0L460.3 93.4Z" fill="#796b5d" stroke="#796b5d"></path><path d="M171.1 618.1L169.1 752.6L253.2 674.1Z" fill="#98897b" stroke="#98897b"></path><path d="M0 635.1L171.1 618.1L158.1 542.7Z" fill="#65584a" stroke="#65584a"></path><path d="M839.7 784.6L899.7 682.1L683.6 630.1Z" fill="#6f6154" stroke="#6f6154"></path><path d="M867.7 536.7L1001.8 398.3L871.7 362.3Z" fill="#65584a" stroke="#65584a"></path><path d="M564.4 0L460.3 93.4L613.4 130.4Z" fill="#65584a" stroke="#65584a"></path><path d="M460.3 93.4L276.2 0L281.2 153.4Z" fill="#8d7f71" stroke="#8d7f71"></path><path d="M281.2 153.4L182.1 111.4L286.2 246.9Z" fill="#5b4e41" stroke="#5b4e41"></path><path d="M746.6 0L613.4 130.4L689.6 160.4Z" fill="#a29485" stroke="#a29485"></path><path d="M250.2 920L455.3 920L326.2 801.6Z" fill="#514538" stroke="#514538"></path><path d="M326.2 801.6L455.3 920L414.3 799.6Z" fill="#65584a" stroke="#65584a"></path><path d="M756.6 920L839.7 784.6L721.6 795.6Z" fill="#837567" stroke="#837567"></path><path d="M721.6 795.6L839.7 784.6L683.6 630.1Z" fill="#6f6154" stroke="#6f6154"></path><path d="M455.3 920L572.4 920L560.4 786.6Z" fill="#65584a" stroke="#65584a"></path><path d="M276.2 0L182.1 111.4L281.2 153.4Z" fill="#796b5d" stroke="#796b5d"></path><path d="M1039.8 538.7L1001.8 398.3L867.7 536.7Z" fill="#796b5d" stroke="#796b5d"></path><path d="M874.7 252.9L984.8 155.4L848.7 166.4Z" fill="#b8a99a" stroke="#b8a99a"></path><path d="M1014.8 823.6L968.8 672.1L899.7 682.1Z" fill="#ad9e90" stroke="#ad9e90"></path><path d="M899.7 682.1L968.8 672.1L867.7 536.7Z" fill="#796b5d" stroke="#796b5d"></path><path d="M0 391.3L0 508.7L129.1 433.3Z" fill="#ad9e90" stroke="#ad9e90"></path><path d="M129.1 433.3L0 508.7L158.1 542.7Z" fill="#a29485" stroke="#a29485"></path><path d="M0 391.3L129.1 433.3L115.1 285.9Z" fill="#65584a" stroke="#65584a"></path><path d="M0 281.9L0 391.3L115.1 285.9Z" fill="#98897b" stroke="#98897b"></path><path d="M463.3 0L276.2 0L460.3 93.4Z" fill="#a29485" stroke="#a29485"></path><path d="M875.7 0L746.6 0L848.7 166.4Z" fill="#b8a99a" stroke="#b8a99a"></path><path d="M848.7 166.4L746.6 0L689.6 160.4Z" fill="#b8a99a" stroke="#b8a99a"></path><path d="M1001.8 398.3L1002.8 286.9L871.7 362.3Z" fill="#6f6154" stroke="#6f6154"></path><path d="M572.4 920L756.6 920L721.6 795.6Z" fill="#b8a99a" stroke="#b8a99a"></path><path d="M839.7 784.6L1014.8 823.6L899.7 682.1Z" fill="#a29485" stroke="#a29485"></path><path d="M153.1 920L250.2 920L169.1 752.6Z" fill="#98897b" stroke="#98897b"></path><path d="M169.1 752.6L250.2 920L326.2 801.6Z" fill="#6f6154" stroke="#6f6154"></path><path d="M968.8 672.1L1039.8 538.7L867.7 536.7Z" fill="#6f6154" stroke="#6f6154"></path><path d="M1001.8 398.3L1140.9 389.3L1002.8 286.9Z" fill="#98897b" stroke="#98897b"></path><path d="M0 508.7L0 635.1L158.1 542.7Z" fill="#65584a" stroke="#65584a"></path><path d="M0 168.4L0 281.9L115.1 285.9Z" fill="#6f6154" stroke="#6f6154"></path><path d="M0 168.4L115.1 285.9L182.1 111.4Z" fill="#5b4e41" stroke="#5b4e41"></path><path d="M1185.9 228.9L984.8 155.4L1002.8 286.9Z" fill="#65584a" stroke="#65584a"></path><path d="M1002.8 286.9L984.8 155.4L874.7 252.9Z" fill="#837567" stroke="#837567"></path><path d="M756.6 920L842.7 920L839.7 784.6Z" fill="#837567" stroke="#837567"></path><path d="M1114.9 656.1L1128.9 515.7L1039.8 538.7Z" fill="#5b4e41" stroke="#5b4e41"></path><path d="M0 765.6L153.1 920L169.1 752.6Z" fill="#a29485" stroke="#a29485"></path><path d="M112.1 0L0 168.4L182.1 111.4Z" fill="#8d7f71" stroke="#8d7f71"></path><path d="M984.8 155.4L875.7 0L848.7 166.4Z" fill="#a29485" stroke="#a29485"></path><path d="M0 635.1L0 765.6L169.1 752.6Z" fill="#514538" stroke="#514538"></path><path d="M276.2 0L112.1 0L182.1 111.4Z" fill="#ad9e90" stroke="#ad9e90"></path><path d="M1114.9 656.1L1039.8 538.7L968.8 672.1Z" fill="#ad9e90" stroke="#ad9e90"></path><path d="M1039.8 538.7L1128.9 515.7L1001.8 398.3Z" fill="#ad9e90" stroke="#ad9e90"></path><path d="M842.7 920L1014.8 823.6L839.7 784.6Z" fill="#6f6154" stroke="#6f6154"></path><path d="M1128.9 515.7L1140.9 389.3L1001.8 398.3Z" fill="#837567" stroke="#837567"></path><path d="M1014.8 823.6L1114.9 656.1L968.8 672.1Z" fill="#514538" stroke="#514538"></path><path d="M112.1 0L0 0L0 168.4Z" fill="#a29485" stroke="#a29485"></path><path d="M0 765.6L0 920L153.1 920Z" fill="#8d7f71" stroke="#8d7f71"></path><path d="M1186.9 130.4L1041.8 0L984.8 155.4Z" fill="#98897b" stroke="#98897b"></path><path d="M984.8 155.4L1041.8 0L875.7 0Z" fill="#b8a99a" stroke="#b8a99a"></path><path d="M842.7 920L1040.8 920L1014.8 823.6Z" fill="#98897b" stroke="#98897b"></path><path d="M1014.8 823.6L1190.9 827.6L1114.9 656.1Z" fill="#ad9e90" stroke="#ad9e90"></path><path d="M1140.9 389.3L1185.9 228.9L1002.8 286.9Z" fill="#796b5d" stroke="#796b5d"></path><path d="M1297 285.9L1185.9 228.9L1140.9 389.3Z" fill="#a29485" stroke="#a29485"></path><path d="M1297 402.3L1140.9 389.3L1128.9 515.7Z" fill="#a29485" stroke="#a29485"></path><path d="M1185.9 228.9L1186.9 130.4L984.8 155.4Z" fill="#837567" stroke="#837567"></path><path d="M1159.9 920L1190.9 827.6L1014.8 823.6Z" fill="#b8a99a" stroke="#b8a99a"></path><path d="M1297 557.7L1297 402.3L1128.9 515.7Z" fill="#98897b" stroke="#98897b"></path><path d="M1185.9 228.9L1297 166.4L1186.9 130.4Z" fill="#ad9e90" stroke="#ad9e90"></path><path d="M1297 557.7L1128.9 515.7L1114.9 656.1Z" fill="#ad9e90" stroke="#ad9e90"></path><path d="M1297 669.1L1297 557.7L1114.9 656.1Z" fill="#ad9e90" stroke="#ad9e90"></path><path d="M1040.8 920L1159.9 920L1014.8 823.6Z" fill="#b8a99a" stroke="#b8a99a"></path><path d="M1190.9 827.6L1297 669.1L1114.9 656.1Z" fill="#514538" stroke="#514538"></path><path d="M1297 402.3L1297 285.9L1140.9 389.3Z" fill="#514538" stroke="#514538"></path><path d="M1297 0L1174.9 0L1186.9 130.4Z" fill="#65584a" stroke="#65584a"></path><path d="M1186.9 130.4L1174.9 0L1041.8 0Z" fill="#796b5d" stroke="#796b5d"></path><path d="M1297 776.6L1297 669.1L1190.9 827.6Z" fill="#514538" stroke="#514538"></path><path d="M1297 285.9L1297 166.4L1185.9 228.9Z" fill="#6f6154" stroke="#6f6154"></path><path d="M1297 920L1297 776.6L1190.9 827.6Z" fill="#ad9e90" stroke="#ad9e90"></path><path d="M1297 166.4L1297 0L1186.9 130.4Z" fill="#b8a99a" stroke="#b8a99a"></path><path d="M1159.9 920L1297 920L1190.9 827.6Z" fill="#6f6154" stroke="#6f6154"></path></g></svg>