<svg id="visual" viewBox="0 0 1297 920" width="1297" height="920" xmlns="http://www.w3.org/2000/svg" xmlns:xlink="http://www.w3.org/1999/xlink" version="1.1"><g stroke-width="1" stroke-linejoin="bevel"><path d="M605.4 545.7L708.6 655.1L727.6 543.7Z" fill="#7c5130" stroke="#7c5130"></path><path d="M605.4 545.7L602.4 677.1L708.6 655.1Z" fill="#4d2407" stroke="#4d2407"></path><path d="M602.4 677.1L615.4 755.6L708.6 655.1Z" fill="#7c5130" stroke="#7c5130"></path><path d="M833.7 816.6L853.7 668.1L708.6 655.1Z" fill="#ad835c" stroke="#ad835c"></path><path d="M708.6 655.1L853.7 668.1L727.6 543.7Z" fill="#6c4223" stroke="#6c4223"></path><path d="M615.4 755.6L680.6 801.6L708.6 655.1Z" fill="#4d2407" stroke="#4d2407"></path><path d="M899.7 521.7L746.6 390.3L727.6 543.7Z" fill="#6c4223" stroke="#6c4223"></path><path d="M727.6 543.7L746.6 390.3L605.4 545.7Z" fill="#6c4223" stroke="#6c4223"></path><path d="M853.7 668.1L899.7 521.7L727.6 543.7Z" fill="#5d3316" stroke="#5d3316"></path><path d="M746.6 390.3L546.4 373.3L605.4 545.7Z" fill="#f0ca9c" stroke="#f0ca9c"></path><path d="M605.4 545.7L420.3 653.1L602.4 677.1Z" fill="#8d623e" stroke="#8d623e"></path><path d="M602.4 677.1L420.3 653.1L615.4 755.6Z" fill="#dfb88b" stroke="#dfb88b"></path><path d="M404.3 556.7L420.3 653.1L605.4 545.7Z" fill="#5d3316" stroke="#5d3316"></path><path d="M552.4 920L718.6 920L680.6 801.6Z" fill="#dfb88b" stroke="#dfb88b"></path><path d="M462.3 405.3L404.3 556.7L605.4 545.7Z" fill="#9d724d" stroke="#9d724d"></path><path d="M546.4 373.3L462.3 405.3L605.4 545.7Z" fill="#7c5130" stroke="#7c5130"></path><path d="M680.6 801.6L833.7 816.6L708.6 655.1Z" fill="#6c4223" stroke="#6c4223"></path><path d="M853.7 668.1L987.8 690.1L899.7 521.7Z" fill="#9d724d" stroke="#9d724d"></path><path d="M899.7 521.7L893.7 398.3L746.6 390.3Z" fill="#7c5130" stroke="#7c5130"></path><path d="M746.6 390.3L610.4 286.9L546.4 373.3Z" fill="#4d2407" stroke="#4d2407"></path><path d="M880.7 280.9L695.6 285.9L746.6 390.3Z" fill="#dfb88b" stroke="#dfb88b"></path><path d="M546.4 373.3L416.3 274.9L462.3 405.3Z" fill="#cea67b" stroke="#cea67b"></path><path d="M695.6 285.9L610.4 286.9L746.6 390.3Z" fill="#9d724d" stroke="#9d724d"></path><path d="M552.4 920L680.6 801.6L615.4 755.6Z" fill="#7c5130" stroke="#7c5130"></path><path d="M680.6 801.6L718.6 920L833.7 816.6Z" fill="#f0ca9c" stroke="#f0ca9c"></path><path d="M1023.8 790.6L987.8 690.1L833.7 816.6Z" fill="#6c4223" stroke="#6c4223"></path><path d="M833.7 816.6L987.8 690.1L853.7 668.1Z" fill="#be946b" stroke="#be946b"></path><path d="M899.7 521.7L977.8 424.3L893.7 398.3Z" fill="#be946b" stroke="#be946b"></path><path d="M404.3 556.7L325.2 631.1L420.3 653.1Z" fill="#9d724d" stroke="#9d724d"></path><path d="M402.3 818.6L552.4 920L615.4 755.6Z" fill="#5d3316" stroke="#5d3316"></path><path d="M299.2 516.7L325.2 631.1L404.3 556.7Z" fill="#dfb88b" stroke="#dfb88b"></path><path d="M402.3 818.6L615.4 755.6L420.3 653.1Z" fill="#6c4223" stroke="#6c4223"></path><path d="M299.2 774.6L402.3 818.6L420.3 653.1Z" fill="#4d2407" stroke="#4d2407"></path><path d="M1035.8 512.7L977.8 424.3L899.7 521.7Z" fill="#5d3316" stroke="#5d3316"></path><path d="M893.7 398.3L880.7 280.9L746.6 390.3Z" fill="#f0ca9c" stroke="#f0ca9c"></path><path d="M296.2 433.3L404.3 556.7L462.3 405.3Z" fill="#cea67b" stroke="#cea67b"></path><path d="M296.2 433.3L299.2 516.7L404.3 556.7Z" fill="#6c4223" stroke="#6c4223"></path><path d="M977.8 424.3L880.7 280.9L893.7 398.3Z" fill="#f0ca9c" stroke="#f0ca9c"></path><path d="M414.3 154.4L416.3 274.9L610.4 286.9Z" fill="#cea67b" stroke="#cea67b"></path><path d="M987.8 690.1L1035.8 512.7L899.7 521.7Z" fill="#ad835c" stroke="#ad835c"></path><path d="M718.6 920L866.7 920L833.7 816.6Z" fill="#6c4223" stroke="#6c4223"></path><path d="M416.3 274.9L296.2 433.3L462.3 405.3Z" fill="#5d3316" stroke="#5d3316"></path><path d="M739.6 166.4L610.4 286.9L695.6 285.9Z" fill="#5d3316" stroke="#5d3316"></path><path d="M610.4 286.9L416.3 274.9L546.4 373.3Z" fill="#5d3316" stroke="#5d3316"></path><path d="M315.2 920L429.3 920L402.3 818.6Z" fill="#9d724d" stroke="#9d724d"></path><path d="M402.3 818.6L429.3 920L552.4 920Z" fill="#4d2407" stroke="#4d2407"></path><path d="M866.7 920L1023.8 790.6L833.7 816.6Z" fill="#8d623e" stroke="#8d623e"></path><path d="M1159.9 651.1L1139.9 544.7L1035.8 512.7Z" fill="#8d623e" stroke="#8d623e"></path><path d="M140.1 627.1L299.2 774.6L325.2 631.1Z" fill="#8d623e" stroke="#8d623e"></path><path d="M325.2 631.1L299.2 774.6L420.3 653.1Z" fill="#6c4223" stroke="#6c4223"></path><path d="M140.1 627.1L325.2 631.1L299.2 516.7Z" fill="#4d2407" stroke="#4d2407"></path><path d="M880.7 280.9L739.6 166.4L695.6 285.9Z" fill="#6c4223" stroke="#6c4223"></path><path d="M1159.9 651.1L1035.8 512.7L987.8 690.1Z" fill="#6c4223" stroke="#6c4223"></path><path d="M1035.8 512.7L1172.9 392.3L977.8 424.3Z" fill="#7c5130" stroke="#7c5130"></path><path d="M977.8 424.3L984.8 234.9L880.7 280.9Z" fill="#8d623e" stroke="#8d623e"></path><path d="M1121.9 290.9L984.8 234.9L977.8 424.3Z" fill="#7c5130" stroke="#7c5130"></path><path d="M880.7 280.9L894.7 121.4L739.6 166.4Z" fill="#ad835c" stroke="#ad835c"></path><path d="M866.7 920L1012.8 920L1023.8 790.6Z" fill="#dfb88b" stroke="#dfb88b"></path><path d="M1141.9 778.6L1159.9 651.1L987.8 690.1Z" fill="#ad835c" stroke="#ad835c"></path><path d="M299.2 774.6L315.2 920L402.3 818.6Z" fill="#6c4223" stroke="#6c4223"></path><path d="M1141.9 778.6L987.8 690.1L1023.8 790.6Z" fill="#dfb88b" stroke="#dfb88b"></path><path d="M685.6 0L613.4 94.4L739.6 166.4Z" fill="#5d3316" stroke="#5d3316"></path><path d="M739.6 166.4L613.4 94.4L610.4 286.9Z" fill="#ad835c" stroke="#ad835c"></path><path d="M613.4 94.4L414.3 154.4L610.4 286.9Z" fill="#6c4223" stroke="#6c4223"></path><path d="M416.3 274.9L291.2 253.9L296.2 433.3Z" fill="#6c4223" stroke="#6c4223"></path><path d="M414.3 154.4L291.2 253.9L416.3 274.9Z" fill="#be946b" stroke="#be946b"></path><path d="M123.1 488.7L140.1 627.1L299.2 516.7Z" fill="#6c4223" stroke="#6c4223"></path><path d="M1137.9 920L1141.9 778.6L1023.8 790.6Z" fill="#4d2407" stroke="#4d2407"></path><path d="M984.8 234.9L894.7 121.4L880.7 280.9Z" fill="#cea67b" stroke="#cea67b"></path><path d="M123.1 488.7L299.2 516.7L296.2 433.3Z" fill="#dfb88b" stroke="#dfb88b"></path><path d="M299.2 774.6L149.1 920L315.2 920Z" fill="#7c5130" stroke="#7c5130"></path><path d="M1139.9 544.7L1172.9 392.3L1035.8 512.7Z" fill="#be946b" stroke="#be946b"></path><path d="M984.8 234.9L1009.8 163.4L894.7 121.4Z" fill="#8d623e" stroke="#8d623e"></path><path d="M1297 525.7L1172.9 392.3L1139.9 544.7Z" fill="#5d3316" stroke="#5d3316"></path><path d="M1172.9 392.3L1121.9 290.9L977.8 424.3Z" fill="#cea67b" stroke="#cea67b"></path><path d="M291.2 253.9L155.1 402.3L296.2 433.3Z" fill="#7c5130" stroke="#7c5130"></path><path d="M1121.9 290.9L1009.8 163.4L984.8 234.9Z" fill="#4d2407" stroke="#4d2407"></path><path d="M155.1 402.3L123.1 488.7L296.2 433.3Z" fill="#ad835c" stroke="#ad835c"></path><path d="M0 649.1L136.1 757.6L140.1 627.1Z" fill="#8d623e" stroke="#8d623e"></path><path d="M140.1 627.1L136.1 757.6L299.2 774.6Z" fill="#5d3316" stroke="#5d3316"></path><path d="M414.3 154.4L316.2 136.4L291.2 253.9Z" fill="#5d3316" stroke="#5d3316"></path><path d="M291.2 253.9L149.1 243.9L155.1 402.3Z" fill="#be946b" stroke="#be946b"></path><path d="M432.3 0L316.2 136.4L414.3 154.4Z" fill="#5d3316" stroke="#5d3316"></path><path d="M1012.8 920L1137.9 920L1023.8 790.6Z" fill="#cea67b" stroke="#cea67b"></path><path d="M1141.9 778.6L1297 645.1L1159.9 651.1Z" fill="#f0ca9c" stroke="#f0ca9c"></path><path d="M867.7 0L685.6 0L739.6 166.4Z" fill="#5d3316" stroke="#5d3316"></path><path d="M613.4 94.4L556.4 0L414.3 154.4Z" fill="#be946b" stroke="#be946b"></path><path d="M867.7 0L739.6 166.4L894.7 121.4Z" fill="#7c5130" stroke="#7c5130"></path><path d="M685.6 0L556.4 0L613.4 94.4Z" fill="#f0ca9c" stroke="#f0ca9c"></path><path d="M136.1 757.6L149.1 920L299.2 774.6Z" fill="#9d724d" stroke="#9d724d"></path><path d="M0 378.3L0 515.7L123.1 488.7Z" fill="#5d3316" stroke="#5d3316"></path><path d="M316.2 136.4L149.1 243.9L291.2 253.9Z" fill="#9d724d" stroke="#9d724d"></path><path d="M1022.8 0L867.7 0L894.7 121.4Z" fill="#dfb88b" stroke="#dfb88b"></path><path d="M1022.8 0L894.7 121.4L1009.8 163.4Z" fill="#dfb88b" stroke="#dfb88b"></path><path d="M1297 809.6L1297 645.1L1141.9 778.6Z" fill="#f0ca9c" stroke="#f0ca9c"></path><path d="M1159.9 651.1L1297 525.7L1139.9 544.7Z" fill="#ad835c" stroke="#ad835c"></path><path d="M1297 645.1L1297 525.7L1159.9 651.1Z" fill="#ad835c" stroke="#ad835c"></path><path d="M1172.9 392.3L1297 267.9L1121.9 290.9Z" fill="#f0ca9c" stroke="#f0ca9c"></path><path d="M556.4 0L432.3 0L414.3 154.4Z" fill="#6c4223" stroke="#6c4223"></path><path d="M316.2 136.4L121.1 142.4L149.1 243.9Z" fill="#5d3316" stroke="#5d3316"></path><path d="M1297 525.7L1297 375.3L1172.9 392.3Z" fill="#4d2407" stroke="#4d2407"></path><path d="M1121.9 290.9L1187.9 158.4L1009.8 163.4Z" fill="#6c4223" stroke="#6c4223"></path><path d="M1137.9 920L1297 809.6L1141.9 778.6Z" fill="#5d3316" stroke="#5d3316"></path><path d="M0 515.7L0 649.1L140.1 627.1Z" fill="#8d623e" stroke="#8d623e"></path><path d="M136.1 757.6L0 822.6L149.1 920Z" fill="#6c4223" stroke="#6c4223"></path><path d="M0 515.7L140.1 627.1L123.1 488.7Z" fill="#4d2407" stroke="#4d2407"></path><path d="M0 378.3L123.1 488.7L155.1 402.3Z" fill="#dfb88b" stroke="#dfb88b"></path><path d="M1297 267.9L1187.9 158.4L1121.9 290.9Z" fill="#6c4223" stroke="#6c4223"></path><path d="M1151.9 0L1022.8 0L1009.8 163.4Z" fill="#9d724d" stroke="#9d724d"></path><path d="M432.3 0L306.2 0L316.2 136.4Z" fill="#cea67b" stroke="#cea67b"></path><path d="M0 296.9L155.1 402.3L149.1 243.9Z" fill="#7c5130" stroke="#7c5130"></path><path d="M0 296.9L0 378.3L155.1 402.3Z" fill="#7c5130" stroke="#7c5130"></path><path d="M0 649.1L0 822.6L136.1 757.6Z" fill="#f0ca9c" stroke="#f0ca9c"></path><path d="M152.1 0L121.1 142.4L316.2 136.4Z" fill="#8d623e" stroke="#8d623e"></path><path d="M1297 375.3L1297 267.9L1172.9 392.3Z" fill="#6c4223" stroke="#6c4223"></path><path d="M1137.9 920L1297 920L1297 809.6Z" fill="#6c4223" stroke="#6c4223"></path><path d="M121.1 142.4L0 296.9L149.1 243.9Z" fill="#dfb88b" stroke="#dfb88b"></path><path d="M0 822.6L0 920L149.1 920Z" fill="#7c5130" stroke="#7c5130"></path><path d="M1297 0L1151.9 0L1187.9 158.4Z" fill="#4d2407" stroke="#4d2407"></path><path d="M1187.9 158.4L1151.9 0L1009.8 163.4Z" fill="#5d3316" stroke="#5d3316"></path><path d="M1297 267.9L1297 136.4L1187.9 158.4Z" fill="#5d3316" stroke="#5d3316"></path><path d="M306.2 0L152.1 0L316.2 136.4Z" fill="#ad835c" stroke="#ad835c"></path><path d="M121.1 142.4L0 130.4L0 296.9Z" fill="#9d724d" stroke="#9d724d"></path><path d="M0 0L0 130.4L121.1 142.4Z" fill="#4d2407" stroke="#4d2407"></path><path d="M1297 136.4L1297 0L1187.9 158.4Z" fill="#8d623e" stroke="#8d623e"></path><path d="M152.1 0L0 0L121.1 142.4Z" fill="#9d724d" stroke="#9d724d"></path></g></svg>